<svg width="153" height="54" viewBox="0 0 153 54" fill="none" xmlns="http://www.w3.org/2000/svg">
<path d="M2 38.1111V15.8889C2 12.2053 3.46329 8.67263 6.06796 6.06796C8.67263 3.46329 12.2053 2 15.8889 2H38.1111C41.7947 2 45.3274 3.46329 47.932 6.06796C50.5367 8.67263 52 12.2053 52 15.8889V38.1111C52 41.7947 50.5367 45.3274 47.932 47.932C45.3274 50.5367 41.7947 52 38.1111 52H15.8889C12.2053 52 8.67263 50.5367 6.06796 47.932C3.46329 45.3274 2 41.7947 2 38.1111Z" stroke="#FEFFFD" stroke-width="4"/>
<path d="M39.5 33.9443C39.5 33.9443 35.3333 39.4999 27 39.4999C18.6667 39.4999 14.5 33.9443 14.5 33.9443" stroke="#FEFFFD" stroke-width="4" stroke-linecap="round" stroke-linejoin="round"/>
<path d="M17.278 21.4448C16.9097 21.4448 16.5564 21.2984 16.296 21.038C16.0355 20.7775 15.8892 20.4242 15.8892 20.0559C15.8892 19.6875 16.0355 19.3343 16.296 19.0738C16.5564 18.8133 16.9097 18.667 17.278 18.667C17.6464 18.667 17.9997 18.8133 18.2601 19.0738C18.5206 19.3343 18.6669 19.6875 18.6669 20.0559C18.6669 20.4242 18.5206 20.7775 18.2601 21.038C17.9997 21.2984 17.6464 21.4448 17.278 21.4448ZM36.7225 21.4448C36.3541 21.4448 36.0009 21.2984 35.7404 21.038C35.4799 20.7775 35.3336 20.4242 35.3336 20.0559C35.3336 19.6875 35.4799 19.3343 35.7404 19.0738C36.0009 18.8133 36.3541 18.667 36.7225 18.667C37.0908 18.667 37.4441 18.8133 37.7046 19.0738C37.965 19.3343 38.1114 19.6875 38.1114 20.0559C38.1114 20.4242 37.965 20.7775 37.7046 21.038C37.4441 21.2984 37.0908 21.4448 36.7225 21.4448Z" fill="#FEFFFD" stroke="#FEFFFD" stroke-width="4" stroke-linecap="round" stroke-linejoin="round"/>
<path d="M74.056 10.248V12.96H69.592V27H66.232V12.96H61.768V10.248H74.056ZM88.8676 20.064C88.8676 20.544 88.8356 20.976 88.7716 21.36H79.0516C79.1316 22.32 79.4676 23.072 80.0596 23.616C80.6516 24.16 81.3796 24.432 82.2436 24.432C83.4916 24.432 84.3796 23.896 84.9076 22.824H88.5316C88.1476 24.104 87.4116 25.16 86.3236 25.992C85.2356 26.808 83.8996 27.216 82.3156 27.216C81.0356 27.216 79.8836 26.936 78.8596 26.376C77.8516 25.8 77.0596 24.992 76.4836 23.952C75.9236 22.912 75.6436 21.712 75.6436 20.352C75.6436 18.976 75.9236 17.768 76.4836 16.728C77.0436 15.688 77.8276 14.888 78.8356 14.328C79.8436 13.768 81.0036 13.488 82.3156 13.488C83.5796 13.488 84.7076 13.76 85.6996 14.304C86.7076 14.848 87.4836 15.624 88.0276 16.632C88.5876 17.624 88.8676 18.768 88.8676 20.064ZM85.3876 19.104C85.3716 18.24 85.0596 17.552 84.4516 17.04C83.8436 16.512 83.0996 16.248 82.2196 16.248C81.3876 16.248 80.6836 16.504 80.1076 17.016C79.5476 17.512 79.2036 18.208 79.0756 19.104H85.3876ZM107.832 13.512C109.464 13.512 110.776 14.016 111.768 15.024C112.776 16.016 113.28 17.408 113.28 19.2V27H109.92V19.656C109.92 18.616 109.656 17.824 109.128 17.28C108.6 16.72 107.88 16.44 106.968 16.44C106.056 16.44 105.328 16.72 104.784 17.28C104.256 17.824 103.992 18.616 103.992 19.656V27H100.632V19.656C100.632 18.616 100.368 17.824 99.8401 17.28C99.3121 16.72 98.5921 16.44 97.6801 16.44C96.7521 16.44 96.0161 16.72 95.4721 17.28C94.9441 17.824 94.6801 18.616 94.6801 19.656V27H91.3201V13.704H94.6801V15.312C95.1121 14.752 95.6641 14.312 96.3361 13.992C97.0241 13.672 97.7761 13.512 98.5921 13.512C99.6321 13.512 100.56 13.736 101.376 14.184C102.192 14.616 102.824 15.24 103.272 16.056C103.704 15.288 104.328 14.672 105.144 14.208C105.976 13.744 106.872 13.512 107.832 13.512ZM115.604 20.304C115.604 18.96 115.868 17.768 116.396 16.728C116.941 15.688 117.669 14.888 118.581 14.328C119.509 13.768 120.541 13.488 121.677 13.488C122.669 13.488 123.533 13.688 124.269 14.088C125.021 14.488 125.621 14.992 126.069 15.6V13.704H129.453V27H126.069V25.056C125.637 25.68 125.037 26.2 124.269 26.616C123.517 27.016 122.645 27.216 121.653 27.216C120.533 27.216 119.509 26.928 118.581 26.352C117.669 25.776 116.941 24.968 116.396 23.928C115.868 22.872 115.604 21.664 115.604 20.304ZM126.069 20.352C126.069 19.536 125.909 18.84 125.589 18.264C125.269 17.672 124.837 17.224 124.293 16.92C123.749 16.6 123.165 16.44 122.541 16.44C121.917 16.44 121.341 16.592 120.812 16.896C120.285 17.2 119.853 17.648 119.517 18.24C119.197 18.816 119.037 19.504 119.037 20.304C119.037 21.104 119.197 21.808 119.517 22.416C119.853 23.008 120.285 23.464 120.812 23.784C121.357 24.104 121.933 24.264 122.541 24.264C123.165 24.264 123.749 24.112 124.293 23.808C124.837 23.488 125.269 23.04 125.589 22.464C125.909 21.872 126.069 21.168 126.069 20.352ZM140.102 13.512C141.686 13.512 142.966 14.016 143.942 15.024C144.918 16.016 145.406 17.408 145.406 19.2V27H142.046V19.656C142.046 18.6 141.782 17.792 141.254 17.232C140.726 16.656 140.006 16.368 139.094 16.368C138.166 16.368 137.43 16.656 136.886 17.232C136.358 17.792 136.094 18.6 136.094 19.656V27H132.734V13.704H136.094V15.36C136.542 14.784 137.11 14.336 137.798 14.016C138.502 13.68 139.27 13.512 140.102 13.512ZM72.16 38.408C73.104 38.584 73.88 39.056 74.488 39.824C75.096 40.592 75.4 41.472 75.4 42.464C75.4 43.36 75.176 44.152 74.728 44.84C74.296 45.512 73.664 46.04 72.832 46.424C72 46.808 71.016 47 69.88 47H62.656V30.248H69.568C70.704 30.248 71.68 30.432 72.496 30.8C73.328 31.168 73.952 31.68 74.368 32.336C74.8 32.992 75.016 33.736 75.016 34.568C75.016 35.544 74.752 36.36 74.224 37.016C73.712 37.672 73.024 38.136 72.16 38.408ZM66.016 37.16H69.088C69.888 37.16 70.504 36.984 70.936 36.632C71.368 36.264 71.584 35.744 71.584 35.072C71.584 34.4 71.368 33.88 70.936 33.512C70.504 33.144 69.888 32.96 69.088 32.96H66.016V37.16ZM69.4 44.264C70.216 44.264 70.848 44.072 71.296 43.688C71.76 43.304 71.992 42.76 71.992 42.056C71.992 41.336 71.752 40.776 71.272 40.376C70.792 39.96 70.144 39.752 69.328 39.752H66.016V44.264H69.4ZM79.7819 32.12C79.1899 32.12 78.6939 31.936 78.2939 31.568C77.9099 31.184 77.7179 30.712 77.7179 30.152C77.7179 29.592 77.9099 29.128 78.2939 28.76C78.6939 28.376 79.1899 28.184 79.7819 28.184C80.3739 28.184 80.8619 28.376 81.2459 28.76C81.6459 29.128 81.8459 29.592 81.8459 30.152C81.8459 30.712 81.6459 31.184 81.2459 31.568C80.8619 31.936 80.3739 32.12 79.7819 32.12ZM81.4379 33.704V47H78.0779V33.704H81.4379ZM83.8936 40.352C83.8936 38.976 84.1736 37.776 84.7336 36.752C85.2936 35.712 86.0696 34.912 87.0616 34.352C88.0536 33.776 89.1896 33.488 90.4696 33.488C92.1176 33.488 93.4776 33.904 94.5496 34.736C95.6376 35.552 96.3656 36.704 96.7336 38.192H93.1096C92.9176 37.616 92.5896 37.168 92.1256 36.848C91.6776 36.512 91.1176 36.344 90.4456 36.344C89.4856 36.344 88.7256 36.696 88.1656 37.4C87.6056 38.088 87.3256 39.072 87.3256 40.352C87.3256 41.616 87.6056 42.6 88.1656 43.304C88.7256 43.992 89.4856 44.336 90.4456 44.336C91.8056 44.336 92.6936 43.728 93.1096 42.512H96.7336C96.3656 43.952 95.6376 45.096 94.5496 45.944C93.4616 46.792 92.1016 47.216 90.4696 47.216C89.1896 47.216 88.0536 46.936 87.0616 46.376C86.0696 45.8 85.2936 45 84.7336 43.976C84.1736 42.936 83.8936 41.728 83.8936 40.352ZM98.3311 40.304C98.3311 38.96 98.5951 37.768 99.1231 36.728C99.6671 35.688 100.395 34.888 101.307 34.328C102.235 33.768 103.267 33.488 104.403 33.488C105.395 33.488 106.259 33.688 106.995 34.088C107.747 34.488 108.347 34.992 108.795 35.6V33.704H112.179V47H108.795V45.056C108.363 45.68 107.763 46.2 106.995 46.616C106.243 47.016 105.371 47.216 104.379 47.216C103.259 47.216 102.235 46.928 101.307 46.352C100.395 45.776 99.6671 44.968 99.1231 43.928C98.5951 42.872 98.3311 41.664 98.3311 40.304ZM108.795 40.352C108.795 39.536 108.635 38.84 108.315 38.264C107.995 37.672 107.563 37.224 107.019 36.92C106.475 36.6 105.891 36.44 105.267 36.44C104.643 36.44 104.067 36.592 103.539 36.896C103.011 37.2 102.579 37.648 102.243 38.24C101.923 38.816 101.763 39.504 101.763 40.304C101.763 41.104 101.923 41.808 102.243 42.416C102.579 43.008 103.011 43.464 103.539 43.784C104.083 44.104 104.659 44.264 105.267 44.264C105.891 44.264 106.475 44.112 107.019 43.808C107.563 43.488 107.995 43.04 108.315 42.464C108.635 41.872 108.795 41.168 108.795 40.352ZM118.821 35.768C119.253 35.064 119.813 34.512 120.501 34.112C121.205 33.712 122.005 33.512 122.901 33.512V37.04H122.013C120.957 37.04 120.157 37.288 119.613 37.784C119.085 38.28 118.821 39.144 118.821 40.376V47H115.461V33.704H118.821V35.768ZM124.3 40.304C124.3 38.96 124.564 37.768 125.092 36.728C125.636 35.688 126.364 34.888 127.276 34.328C128.204 33.768 129.236 33.488 130.372 33.488C131.364 33.488 132.228 33.688 132.964 34.088C133.716 34.488 134.316 34.992 134.764 35.6V33.704H138.148V47H134.764V45.056C134.332 45.68 133.732 46.2 132.964 46.616C132.212 47.016 131.34 47.216 130.348 47.216C129.228 47.216 128.204 46.928 127.276 46.352C126.364 45.776 125.636 44.968 125.092 43.928C124.564 42.872 124.3 41.664 124.3 40.304ZM134.764 40.352C134.764 39.536 134.604 38.84 134.284 38.264C133.964 37.672 133.532 37.224 132.988 36.92C132.444 36.6 131.86 36.44 131.236 36.44C130.612 36.44 130.036 36.592 129.508 36.896C128.98 37.2 128.548 37.648 128.212 38.24C127.892 38.816 127.732 39.504 127.732 40.304C127.732 41.104 127.892 41.808 128.212 42.416C128.548 43.008 128.98 43.464 129.508 43.784C130.052 44.104 130.628 44.264 131.236 44.264C131.86 44.264 132.444 44.112 132.988 43.808C133.532 43.488 133.964 43.04 134.284 42.464C134.604 41.872 134.764 41.168 134.764 40.352Z" fill="#FEFFFD"/>
</svg>
